<?xml version="1.0" encoding="utf-8"?>
<!-- Generator: Adobe Illustrator 25.1.0, SVG Export Plug-In . SVG Version: 6.00 Build 0)  -->
<svg version="1.1" xmlns="http://www.w3.org/2000/svg" xmlns:xlink="http://www.w3.org/1999/xlink" x="0px" y="0px"
	 viewBox="0 0 1009.1 1046.2" style="enable-background:new 0 0 1009.1 1046.2;" xml:space="preserve">
<style type="text/css">
	.st0{fill:#E52421;}
	.st1{fill:#EB5D6D;}
	.st2{fill:#010202;}
	.st3{fill:none;stroke:#000000;stroke-width:9;stroke-miterlimit:10;}
	.st4{fill:none;stroke:#EB5D6D;stroke-width:5;stroke-miterlimit:10;}
	.st5{fill:#EC624D;}
	.st6{fill:#E30613;}
	.st7{fill:none;stroke:#EC624D;stroke-width:5;stroke-miterlimit:10;}
	.st8{fill:#FFFFFF;}
</style>
<g id="Layer_3">
</g>
<g id="Layer_1">
	<g id="Layer_2">
	</g>
	<g>
		<path class="st8" d="M759,27.2c8.8,1.3,17.7,2.4,26.5,4c92.4,17.1,166.3,89.7,185.2,181.7c20.8,101.4-25.8,202.7-116.6,252.7
			c-28.4,15.7-59,24.5-91.4,27.2c-45.1,3.7-87.6-5.1-127.7-25.7c-1-0.5-2.1-0.9-2.9-1.3C551,547,470,628,388.8,709.2
			c0.9,1,2.1,2.3,3.4,3.6c21.5,21.6,43.1,43.1,64.6,64.6c16.2,16.2,16.1,35.7-0.1,51.9c-14.4,14.4-28.7,28.8-43.1,43.1
			c-15.7,15.7-35.4,15.7-51.1,0c-22.9-22.8-45.8-45.5-68.3-67.8c-15.4,15.3-31.1,30.8-47.1,46.7c12.4,12.3,25,24.8,37.6,37.4
			c10.4,10.3,20.8,20.6,31,31.1c15.5,15.8,15.3,35.1-0.2,50.7c-14.5,14.5-29,29-43.4,43.4c-15.8,15.8-35.4,15.8-51.1,0.1
			c-22.8-22.8-45.6-45.7-68.7-68.8c-9.1,8.5-19.4,14.5-31.4,17.5c-43.7,11.1-86.4-25.2-82.4-70c1.6-17.8,9.2-32.2,21.7-44.7
			c59.8-59.6,119.4-119.3,179.1-179c98-98.1,196.1-196.1,294.1-294.2c1.2-1.2,2.5-2.2,3.1-2.8c-5.8-14.7-12.3-28.4-16.7-42.7
			C479.2,197.2,558,64.4,688.3,33.4c10.8-2.6,21.9-3.6,32.9-5.3c1.3-0.2,2.6-0.6,3.9-0.9C736.4,27.2,747.7,27.2,759,27.2z
			 M742.2,160.9c-55.2,0-100,44.3-100,99.2c-0.1,55.8,44.3,100.5,99.8,100.6C797,360.8,842,316,842,260.8
			C842,205.4,797.6,160.9,742.2,160.9z"/>
	</g>
</g>
</svg>
