<svg xmlns="http://www.w3.org/2000/svg" viewBox="0 0 1009.13 1046.25"><defs><style>.cls-1{fill:#fff;}</style></defs><g id="Layer_1" data-name="Layer 1"><path class="cls-1" d="M759,27.16c8.84,1.33,17.73,2.42,26.51,4,92.4,17.08,166.34,89.66,185.2,181.67,20.78,101.4-25.8,202.68-116.59,252.71a225.23,225.23,0,0,1-91.43,27.19c-45.08,3.67-87.57-5.15-127.75-25.67-1-.52-2.08-.94-2.88-1.3L388.84,709.22c.94,1,2.13,2.31,3.38,3.56q32.29,32.33,64.61,64.64c16.18,16.21,16.13,35.67-.05,51.86q-21.54,21.54-43.06,43.11c-15.74,15.73-35.36,15.71-51.09.05-22.88-22.79-45.81-45.52-68.3-67.85l-47.08,46.67c12.37,12.29,25,24.81,37.59,37.37,10.37,10.34,20.78,20.65,31,31.11,15.47,15.81,15.32,35.14-.25,50.7q-21.74,21.72-43.45,43.44c-15.77,15.75-35.42,15.78-51.1.08-22.82-22.84-45.63-45.7-68.74-68.84A70.32,70.32,0,0,1,121,962.63c-43.73,11.13-86.42-25.22-82.44-70,1.58-17.77,9.22-32.21,21.71-44.67q89.66-89.4,179.08-179,147.07-147.1,294.15-294.2c1.17-1.17,2.47-2.22,3.06-2.75-5.78-14.69-12.25-28.41-16.67-42.75C479.15,197.24,558,64.35,688.32,33.36c10.78-2.56,21.93-3.55,32.91-5.3,1.3-.2,2.56-.6,3.85-.9ZM742.16,160.87c-55.25,0-100,44.28-100,99.18-.08,55.75,44.3,100.52,99.78,100.64a99.91,99.91,0,1,0,.26-199.82Z"/></g></svg>